# xmcd
#
# Track frame offsets:
#	150
#	11340
#	18058
#	37347
#	58599
#	63583
#	74222
#	92678
#	111177
#	116324
#	128344
#	132254
#
# Disc length: 1967 seconds
#
# Revision: 0
# Processed by: cddbd v1.5.2PL0 Copyright (c) Steve Scherf et al.
# Submitted via: dBpowerAMP V4.0
#
DISCID=a007ad0c
DTITLE=United States - Retail Detail
DYEAR=2006
DGENRE=
TTITLE0=It's Not Goodbye
TTITLE1=Retell The Tale
TTITLE2=Martyrs Have Nothing To Live For
TTITLE3=You Own Your Own
TTITLE4=(1) Mile Aisle
TTITLE5=My Cause Is My Curse
TTITLE6=We Don't Have To Climb
TTITLE7=Immaculate
TTITLE8=Retail Detail
TTITLE9=Can't Get Around It
TTITLE10=Currencies
TTITLE11=It's Not Enough
EXTD=
EXTT0=
EXTT1=
EXTT2=
EXTT3=
EXTT4=
EXTT5=
EXTT6=
EXTT7=
EXTT8=
EXTT9=
EXTT10=
EXTT11=
PLAYORDER=
